<?xml version="1.0" encoding="UTF-8"?>
<svg xmlns="http://www.w3.org/2000/svg" xmlns:xlink="http://www.w3.org/1999/xlink" width="200px" height="px" viewBox="0 0 200 200" version="1.1">
<g id="surface1">
<path style=" stroke:none;fill-rule:nonzero;fill:rgb(0%,0%,0%);fill-opacity:1;" d="M 12.5 12.5 L 12.5 187.5 L 187.5 187.5 L 187.5 12.5 Z M 106.25 148.4375 C 106.25 165.472656 96.1875 173.777344 81.621094 173.777344 C 68.464844 173.777344 60.828125 166.964844 56.953125 158.742188 L 70.34375 150.636719 C 72.925781 155.21875 74.886719 159.09375 80.523438 159.09375 C 85.210938 159.09375 89.0625 156.980469 89.0625 148.757812 L 89.0625 93.75 L 106.25 93.75 Z M 145.058594 173.386719 C 129.789062 173.386719 119.921875 166.496094 115.105469 156.980469 L 128.515625 149.21875 C 132.03125 154.976562 136.621094 158.8125 144.726562 158.8125 C 151.539062 158.8125 155.496094 155.796875 155.496094 151.097656 C 155.496094 145.460938 151.421875 143.464844 143.902344 140.160156 L 139.792969 138.394531 C 127.925781 133.347656 120.058594 127.003906 120.058594 113.609375 C 120.058594 101.277344 129.453125 92.269531 144.136719 92.269531 C 154.59375 92.269531 162.105469 95.519531 167.515625 105.035156 L 154.6875 113.28125 C 151.867188 108.230469 148.828125 106.25 144.117188 106.25 C 139.300781 106.25 136.246094 109.304688 136.246094 113.28125 C 136.246094 118.214844 139.300781 120.210938 146.347656 123.265625 L 150.457031 125.027344 C 164.4375 131.019531 172.308594 137.136719 172.308594 150.871094 C 172.3125 165.675781 160.683594 173.386719 145.058594 173.386719 Z M 145.058594 173.386719 "/>
</g>
</svg>
