<?xml version="1.0" encoding="UTF-8"?>
<svg xmlns="http://www.w3.org/2000/svg" xmlns:xlink="http://www.w3.org/1999/xlink" width="200px" height="px" viewBox="0 0 200 200" version="1.1">
<defs>
<filter id="alpha" filterUnits="objectBoundingBox" x="0%" y="0%" width="100%" height="100%">
  <feColorMatrix type="matrix" in="SourceGraphic" values="0 0 0 0 1 0 0 0 0 1 0 0 0 0 1 0 0 0 1 0"/>
</filter>
<mask id="mask0">
  <g filter="url(#alpha)">
<rect x="0" y="0" width="200" height="200" style="fill:rgb(0%,0%,0%);fill-opacity:0.2;stroke:none;"/>
  </g>
</mask>
<clipPath id="clip1">
  <rect x="0" y="0" width="200" height="200"/>
</clipPath>
<g id="surface5" clip-path="url(#clip1)">
<path style=" stroke:none;fill-rule:nonzero;fill:rgb(100%,100%,100%);fill-opacity:1;" d="M 102.507812 39.523438 C 110.523438 31.503906 121.191406 27.082031 132.535156 27.082031 C 133.78125 27.082031 134.992188 27.167969 136.164062 27.292969 C 140.910156 17.074219 151.089844 10.417969 162.5 10.417969 C 178.28125 10.417969 191.105469 23.042969 191.578125 38.710938 C 191.597656 38.304688 191.667969 37.910156 191.667969 37.5 C 191.667969 21.417969 178.582031 8.332031 162.5 8.332031 C 151.089844 8.332031 140.910156 14.988281 136.164062 25.210938 C 134.992188 25.085938 133.78125 25 132.535156 25 C 121.191406 25 110.523438 29.417969 102.507812 37.4375 L 60.601562 79.339844 C 60.871094 79.746094 61.222656 80.105469 61.539062 80.484375 Z M 102.507812 39.523438 "/>
</g>
<mask id="mask1">
  <g filter="url(#alpha)">
<rect x="0" y="0" width="200" height="200" style="fill:rgb(0%,0%,0%);fill-opacity:0.2;stroke:none;"/>
  </g>
</mask>
<clipPath id="clip2">
  <rect x="0" y="0" width="200" height="200"/>
</clipPath>
<g id="surface8" clip-path="url(#clip2)">
<path style=" stroke:none;fill-rule:nonzero;fill:rgb(100%,100%,100%);fill-opacity:1;" d="M 37.5 10.417969 C 48.914062 10.417969 59.097656 17.074219 63.835938 27.292969 C 65.007812 27.164062 66.222656 27.082031 67.46875 27.082031 C 78.808594 27.082031 89.472656 31.503906 97.496094 39.519531 L 98.957031 40.980469 L 100 39.9375 L 97.496094 37.433594 C 89.472656 29.417969 78.808594 25 67.46875 25 C 66.222656 25 65.007812 25.082031 63.835938 25.210938 C 59.097656 14.988281 48.914062 8.332031 37.5 8.332031 C 21.417969 8.332031 8.332031 21.417969 8.332031 37.5 C 8.332031 37.910156 8.402344 38.304688 8.421875 38.710938 C 8.894531 23.042969 21.71875 10.417969 37.5 10.417969 Z M 37.5 10.417969 "/>
</g>
<mask id="mask2">
  <g filter="url(#alpha)">
<rect x="0" y="0" width="200" height="200" style="fill:rgb(0%,0%,0%);fill-opacity:0.101961;stroke:none;"/>
  </g>
</mask>
<clipPath id="clip3">
  <rect x="0" y="0" width="200" height="200"/>
</clipPath>
<g id="surface11" clip-path="url(#clip3)">
<path style=" stroke:none;fill-rule:nonzero;fill:rgb(0.392157%,0.392157%,0.392157%);fill-opacity:1;" d="M 97.492188 160.476562 C 89.476562 168.496094 78.808594 172.917969 67.464844 172.917969 C 66.21875 172.917969 65.007812 172.832031 63.835938 172.707031 C 59.089844 182.925781 48.910156 189.582031 37.5 189.582031 C 21.71875 189.582031 8.894531 176.957031 8.421875 161.289062 C 8.402344 161.695312 8.332031 162.089844 8.332031 162.5 C 8.332031 178.582031 21.417969 191.667969 37.5 191.667969 C 48.910156 191.667969 59.089844 185.011719 63.835938 174.789062 C 65.007812 174.914062 66.21875 175 67.464844 175 C 78.808594 175 89.476562 170.582031 97.492188 162.5625 L 139.398438 120.660156 C 139.128906 120.253906 138.777344 119.894531 138.460938 119.515625 Z M 97.492188 160.476562 "/>
</g>
<mask id="mask3">
  <g filter="url(#alpha)">
<rect x="0" y="0" width="200" height="200" style="fill:rgb(0%,0%,0%);fill-opacity:0.101961;stroke:none;"/>
  </g>
</mask>
<clipPath id="clip4">
  <rect x="0" y="0" width="200" height="200"/>
</clipPath>
<g id="surface14" clip-path="url(#clip4)">
<path style=" stroke:none;fill-rule:nonzero;fill:rgb(0.392157%,0.392157%,0.392157%);fill-opacity:1;" d="M 162.5 189.582031 C 151.085938 189.582031 140.902344 182.925781 136.164062 172.707031 C 134.992188 172.835938 133.777344 172.917969 132.53125 172.917969 C 121.191406 172.917969 110.527344 168.496094 102.503906 160.480469 L 101.042969 159.019531 L 100 160.0625 L 102.503906 162.566406 C 110.527344 170.582031 121.191406 175 132.53125 175 C 133.777344 175 134.992188 174.917969 136.164062 174.789062 C 140.902344 185.011719 151.085938 191.667969 162.5 191.667969 C 178.582031 191.667969 191.667969 178.582031 191.667969 162.5 C 191.667969 162.089844 191.597656 161.695312 191.578125 161.289062 C 191.105469 176.957031 178.28125 189.582031 162.5 189.582031 Z M 162.5 189.582031 "/>
</g>
<linearGradient id="linear0" gradientUnits="userSpaceOnUse" x1="-0.204964" y1="6.308732" x2="24.204964" y2="17.691269" gradientTransform="matrix(8.333333,0,0,8.333333,0,0)">
<stop offset="0" style="stop-color:rgb(100%,100%,100%);stop-opacity:0.2;"/>
<stop offset="1" style="stop-color:rgb(100%,100%,100%);stop-opacity:0;"/>
</linearGradient>
</defs>
<g id="surface1">
<path style=" stroke:none;fill-rule:nonzero;fill:rgb(98.823529%,70.588235%,8.235294%);fill-opacity:1;" d="M 191.667969 37.5 C 191.667969 21.417969 178.582031 8.332031 162.5 8.332031 C 151.089844 8.332031 140.910156 14.988281 136.164062 25.210938 C 134.992188 25.085938 133.78125 25 132.535156 25 C 121.191406 25 110.523438 29.417969 102.507812 37.4375 L 60.601562 79.339844 C 61.089844 80.070312 61.652344 80.761719 62.289062 81.398438 L 80.890625 100 L 118.605469 62.289062 C 121.117188 59.773438 124.601562 58.332031 128.15625 58.332031 C 135.605469 58.332031 141.667969 64.390625 141.667969 71.84375 C 141.667969 74.550781 140.871094 77.140625 139.398438 79.339844 L 160.0625 100 L 162.566406 97.496094 C 170.582031 89.472656 175 78.808594 175 67.46875 C 175 66.222656 174.917969 65.007812 174.789062 63.835938 C 185.011719 59.097656 191.667969 48.914062 191.667969 37.5 Z M 191.667969 37.5 "/>
<use xlink:href="#surface5" mask="url(#mask0)"/>
<path style=" stroke:none;fill-rule:nonzero;fill:rgb(40.784314%,70.196078%,27.058824%);fill-opacity:1;" d="M 37.5 8.332031 C 21.417969 8.332031 8.332031 21.417969 8.332031 37.5 C 8.332031 48.910156 14.988281 59.089844 25.210938 63.835938 C 25.085938 65.007812 25 66.21875 25 67.464844 C 25 78.808594 29.417969 89.476562 37.4375 97.492188 L 79.339844 139.398438 C 80.070312 138.910156 80.761719 138.347656 81.398438 137.710938 L 100 119.109375 L 62.289062 81.394531 C 59.773438 78.882812 58.332031 75.398438 58.332031 71.84375 C 58.332031 64.394531 64.390625 58.332031 71.84375 58.332031 C 74.550781 58.332031 77.140625 59.128906 79.339844 60.601562 L 100 39.9375 L 97.496094 37.433594 C 89.472656 29.417969 78.808594 25 67.46875 25 C 66.222656 25 65.007812 25.082031 63.835938 25.210938 C 59.097656 14.988281 48.914062 8.332031 37.5 8.332031 Z M 37.5 8.332031 "/>
<use xlink:href="#surface8" mask="url(#mask1)"/>
<path style=" stroke:none;fill-rule:nonzero;fill:rgb(3.921569%,60%,83.921569%);fill-opacity:1;" d="M 8.332031 162.5 C 8.332031 178.582031 21.417969 191.667969 37.5 191.667969 C 48.910156 191.667969 59.089844 185.011719 63.835938 174.789062 C 65.007812 174.914062 66.21875 175 67.464844 175 C 78.808594 175 89.476562 170.582031 97.492188 162.5625 L 139.398438 120.660156 C 138.910156 119.929688 138.347656 119.238281 137.710938 118.601562 L 119.109375 100 L 81.398438 137.710938 C 78.882812 140.226562 75.398438 141.667969 71.84375 141.667969 C 64.394531 141.667969 58.332031 135.609375 58.332031 128.15625 C 58.332031 125.449219 59.128906 122.859375 60.601562 120.660156 L 39.9375 100 L 37.433594 102.503906 C 29.417969 110.527344 25 121.191406 25 132.53125 C 25 133.777344 25.082031 134.992188 25.210938 136.164062 C 14.988281 140.902344 8.332031 151.085938 8.332031 162.5 Z M 8.332031 162.5 "/>
<use xlink:href="#surface11" mask="url(#mask2)"/>
<path style=" stroke:none;fill-rule:nonzero;fill:rgb(93.333333%,20%,14.509804%);fill-opacity:1;" d="M 162.5 191.667969 C 178.582031 191.667969 191.667969 178.582031 191.667969 162.5 C 191.667969 151.089844 185.011719 140.910156 174.789062 136.164062 C 174.914062 134.992188 175 133.78125 175 132.535156 C 175 121.191406 170.582031 110.523438 162.5625 102.507812 L 120.660156 60.601562 C 119.929688 61.089844 119.238281 61.652344 118.601562 62.289062 L 100 80.890625 L 137.710938 118.605469 C 140.226562 121.117188 141.667969 124.601562 141.667969 128.15625 C 141.667969 135.605469 135.609375 141.667969 128.15625 141.667969 C 125.449219 141.667969 122.859375 140.871094 120.660156 139.398438 L 100 160.0625 L 102.503906 162.566406 C 110.527344 170.582031 121.191406 175 132.53125 175 C 133.777344 175 134.992188 174.917969 136.164062 174.789062 C 140.902344 185.011719 151.085938 191.667969 162.5 191.667969 Z M 162.5 191.667969 "/>
<use xlink:href="#surface14" mask="url(#mask3)"/>
<path style=" stroke:none;fill-rule:nonzero;fill:url(#linear0);" d="M 174.789062 136.164062 C 174.914062 134.992188 175 133.78125 175 132.535156 C 175 121.191406 170.582031 110.523438 162.5625 102.507812 L 160.058594 100.003906 L 162.566406 97.496094 C 170.582031 89.472656 175 78.808594 175 67.46875 C 175 66.222656 174.917969 65.007812 174.789062 63.835938 C 185.011719 59.097656 191.667969 48.914062 191.667969 37.5 C 191.667969 21.417969 178.582031 8.332031 162.5 8.332031 C 151.089844 8.332031 140.910156 14.988281 136.164062 25.210938 C 134.992188 25.085938 133.78125 25 132.535156 25 C 121.191406 25 110.523438 29.417969 102.507812 37.4375 L 100.003906 39.941406 L 97.496094 37.433594 C 89.472656 29.417969 78.808594 25 67.46875 25 C 66.222656 25 65.007812 25.082031 63.835938 25.210938 C 59.097656 14.988281 48.914062 8.332031 37.5 8.332031 C 21.417969 8.332031 8.332031 21.417969 8.332031 37.5 C 8.332031 48.910156 14.988281 59.089844 25.210938 63.835938 C 25.085938 65.007812 25 66.21875 25 67.464844 C 25 78.808594 29.417969 89.476562 37.4375 97.492188 L 39.941406 99.996094 L 37.433594 102.503906 C 29.417969 110.527344 25 121.191406 25 132.53125 C 25 133.777344 25.082031 134.992188 25.210938 136.164062 C 14.988281 140.902344 8.332031 151.085938 8.332031 162.5 C 8.332031 178.582031 21.417969 191.667969 37.5 191.667969 C 48.910156 191.667969 59.089844 185.011719 63.835938 174.789062 C 65.007812 174.914062 66.21875 175 67.464844 175 C 78.808594 175 89.476562 170.582031 97.492188 162.5625 L 99.996094 160.058594 L 102.503906 162.566406 C 110.527344 170.582031 121.191406 175 132.53125 175 C 133.777344 175 134.992188 174.917969 136.164062 174.789062 C 140.902344 185.011719 151.085938 191.667969 162.5 191.667969 C 178.582031 191.667969 191.667969 178.582031 191.667969 162.5 C 191.667969 151.089844 185.011719 140.910156 174.789062 136.164062 Z M 71.84375 141.667969 C 64.394531 141.667969 58.332031 135.609375 58.332031 128.15625 C 58.332031 125.449219 59.128906 122.859375 60.601562 120.660156 L 60.59375 120.652344 L 79.335938 139.394531 C 77.128906 140.855469 74.507812 141.667969 71.84375 141.667969 Z M 60.605469 79.335938 C 59.140625 77.128906 58.332031 74.507812 58.332031 71.84375 C 58.332031 64.394531 64.390625 58.332031 71.84375 58.332031 C 74.550781 58.332031 77.140625 59.128906 79.339844 60.601562 L 79.347656 60.597656 Z M 100 119.109375 L 80.890625 100 L 100 80.890625 L 119.109375 100 Z M 128.15625 141.667969 C 125.449219 141.667969 122.859375 140.871094 120.660156 139.398438 L 120.644531 139.410156 L 139.394531 120.664062 C 140.855469 122.871094 141.667969 125.492188 141.667969 128.15625 C 141.667969 135.605469 135.609375 141.667969 128.15625 141.667969 Z M 139.398438 79.339844 L 139.402344 79.347656 L 120.664062 60.605469 C 122.871094 59.140625 125.492188 58.332031 128.15625 58.332031 C 135.605469 58.332031 141.667969 64.390625 141.667969 71.84375 C 141.667969 74.550781 140.871094 77.140625 139.398438 79.339844 Z M 139.398438 79.339844 "/>
</g>
</svg>
