<?xml version="1.0" encoding="UTF-8"?>
<svg xmlns="http://www.w3.org/2000/svg" xmlns:xlink="http://www.w3.org/1999/xlink" width="200px" height="px" viewBox="0 0 200 105" version="1.1">
<g id="surface1">
<path style=" stroke:none;fill-rule:nonzero;fill:rgb(0%,40.392157%,56.078431%);fill-opacity:1;" d="M 2.40625 93.980469 L 8.796875 93.980469 L 8.796875 68.640625 L 18.820312 90.675781 C 19.921875 93.320312 21.574219 94.3125 24.769531 94.3125 C 27.960938 94.3125 29.394531 93.320312 30.605469 90.675781 L 40.519531 68.640625 L 40.519531 93.980469 L 46.90625 93.980469 L 46.90625 68.640625 C 46.90625 66.21875 45.917969 65.003906 43.824219 64.34375 C 38.976562 62.910156 35.671875 64.125 34.242188 67.429688 L 24.546875 89.246094 L 15.074219 67.429688 C 13.644531 64.125 10.339844 62.910156 5.492188 64.34375 C 3.398438 65.003906 2.40625 66.105469 2.40625 68.640625 Z M 2.40625 93.980469 "/>
<path style=" stroke:none;fill-rule:nonzero;fill:rgb(0%,40.392157%,56.078431%);fill-opacity:1;" d="M 52.195312 73.378906 L 58.582031 73.378906 L 58.582031 87.261719 C 58.582031 88.03125 58.804688 89.796875 62.328125 89.90625 C 64.203125 89.90625 76.207031 89.90625 76.316406 89.90625 L 76.316406 73.269531 L 82.707031 73.269531 C 82.707031 73.269531 82.707031 95.964844 82.707031 96.074219 C 82.707031 101.695312 75.765625 102.90625 72.574219 102.90625 L 52.414062 102.90625 L 52.414062 98.609375 C 52.414062 98.609375 72.683594 98.609375 72.683594 98.609375 C 76.757812 98.167969 76.316406 96.074219 76.316406 95.414062 L 76.316406 93.761719 L 62.660156 93.761719 C 56.269531 93.761719 52.195312 90.898438 52.195312 87.703125 C 52.195312 87.371094 52.414062 73.488281 52.195312 73.378906 Z M 52.195312 73.378906 "/>
<path style=" stroke:none;fill-rule:nonzero;fill:rgb(0%,40.392157%,56.078431%);fill-opacity:1;" d="M 190.324219 57.183594 C 186.355469 57.074219 183.382812 57.511719 180.738281 58.503906 C 179.96875 58.835938 178.867188 58.835938 178.757812 59.714844 C 179.199219 60.15625 179.199219 60.707031 179.527344 61.257812 C 180.078125 62.25 181.179688 63.574219 182.0625 64.234375 C 183.050781 65.003906 184.152344 65.777344 185.253906 66.546875 C 187.128906 67.757812 189.332031 68.421875 191.203125 69.632812 C 192.304688 70.292969 193.40625 71.175781 194.398438 71.945312 C 194.949219 72.386719 195.277344 72.9375 195.941406 73.269531 C 195.941406 73.269531 195.941406 73.160156 195.941406 73.160156 C 195.609375 72.71875 195.5 72.058594 195.167969 71.617188 C 194.726562 71.175781 194.179688 70.734375 193.738281 70.183594 C 192.304688 68.3125 190.542969 66.546875 188.671875 65.226562 C 187.128906 64.125 183.601562 62.691406 183.050781 60.820312 C 183.050781 60.820312 183.050781 60.820312 182.941406 60.707031 C 184.042969 60.597656 185.253906 60.265625 186.355469 59.9375 C 188.007812 59.496094 189.550781 59.605469 191.3125 59.164062 C 192.085938 58.945312 192.855469 58.726562 193.628906 58.503906 C 193.628906 58.394531 193.628906 58.175781 193.628906 58.0625 C 192.746094 57.183594 192.085938 55.96875 191.203125 55.199219 C 188.671875 52.996094 185.917969 50.902344 183.050781 49.140625 C 181.511719 48.148438 179.527344 47.488281 177.984375 46.714844 C 177.433594 46.386719 176.445312 46.273438 176.113281 45.835938 C 175.230469 44.734375 174.679688 43.300781 174.128906 42.089844 C 172.699219 39.332031 171.375 36.359375 170.054688 33.496094 C 169.171875 31.621094 168.625 29.636719 167.523438 27.875 C 162.453125 19.5 156.945312 14.433594 148.464844 9.476562 C 146.59375 8.484375 144.5 8.042969 142.1875 7.492188 C 140.976562 7.492188 139.765625 7.382812 138.550781 7.273438 C 137.78125 6.941406 137.011719 5.949219 136.238281 5.507812 C 133.484375 3.746094 126.214844 -0.109375 124.121094 4.957031 C 122.800781 8.152344 126.105469 11.347656 127.207031 12.890625 C 128.089844 13.992188 129.078125 15.316406 129.742188 16.527344 C 130.070312 17.40625 130.179688 18.289062 130.511719 19.171875 C 131.28125 21.375 132.054688 23.6875 133.042969 25.78125 C 133.59375 26.773438 134.144531 27.875 134.917969 28.867188 C 135.359375 29.417969 136.019531 29.636719 136.128906 30.519531 C 135.46875 31.511719 135.359375 32.941406 135.027344 34.15625 C 133.265625 39.664062 133.925781 46.605469 136.460938 50.683594 C 137.230469 51.894531 139.101562 54.648438 141.636719 53.546875 C 143.839844 52.664062 143.398438 49.910156 143.949219 47.375 C 144.058594 46.824219 143.949219 46.386719 144.28125 46.054688 C 144.28125 46.054688 144.28125 46.164062 144.28125 46.164062 C 144.941406 47.488281 145.601562 48.917969 146.261719 50.242188 C 147.804688 52.664062 150.449219 55.199219 152.652344 56.851562 C 153.863281 57.734375 154.746094 59.277344 156.285156 59.828125 C 156.285156 59.828125 156.285156 59.714844 156.285156 59.714844 C 156.285156 59.714844 156.285156 59.714844 156.175781 59.714844 C 155.847656 59.277344 155.40625 59.054688 155.074219 58.726562 C 154.195312 57.84375 153.203125 56.742188 152.542969 55.75 C 150.449219 52.996094 148.6875 49.910156 147.035156 46.824219 C 146.261719 45.285156 145.601562 43.628906 144.941406 42.089844 C 144.609375 41.539062 144.609375 40.65625 144.167969 40.324219 C 143.398438 41.425781 142.296875 42.308594 141.855469 43.628906 C 140.976562 45.722656 140.867188 48.367188 140.535156 51.011719 C 140.316406 51.011719 140.425781 51.011719 140.316406 51.121094 C 138.773438 50.683594 138.222656 49.140625 137.5625 47.707031 C 136.128906 44.179688 135.796875 38.5625 137.121094 34.597656 C 137.449219 33.605469 138.992188 30.300781 138.332031 29.308594 C 138 28.425781 137.011719 27.875 136.460938 27.105469 C 135.796875 26.222656 135.136719 25.011719 134.695312 23.910156 C 133.484375 21.152344 132.933594 18.070312 131.613281 15.316406 C 131.0625 13.992188 129.960938 12.671875 129.191406 11.570312 C 128.308594 10.246094 127.207031 9.253906 126.4375 7.710938 C 126.214844 7.160156 125.886719 6.28125 126.214844 5.730469 C 126.324219 5.289062 126.546875 5.179688 126.875 5.066406 C 127.539062 4.515625 129.300781 5.179688 129.960938 5.507812 C 131.832031 6.28125 133.265625 6.941406 134.808594 7.933594 C 135.46875 8.375 136.238281 9.363281 137.121094 9.585938 C 137.449219 9.585938 137.78125 9.585938 138.113281 9.585938 C 139.652344 9.917969 141.417969 9.695312 142.957031 10.136719 C 145.601562 11.019531 147.914062 12.230469 150.007812 13.550781 C 156.398438 17.628906 161.792969 23.46875 165.320312 30.410156 C 165.871094 31.511719 166.199219 32.613281 166.640625 33.714844 C 167.632812 36.136719 168.953125 38.5625 169.945312 40.988281 C 170.9375 43.300781 171.925781 45.613281 173.46875 47.597656 C 174.242188 48.589844 177.105469 49.140625 178.535156 49.691406 C 179.527344 50.132812 181.070312 50.570312 181.949219 51.011719 C 183.601562 52.003906 185.253906 53.214844 186.90625 54.316406 C 187.679688 54.980469 190.210938 56.191406 190.324219 57.183594 Z M 190.324219 57.183594 "/>
<path style=" stroke:none;fill-rule:nonzero;fill:rgb(0%,40.392157%,56.078431%);fill-opacity:1;" d="M 140.203125 14.542969 C 139.324219 14.542969 138.773438 14.652344 138.222656 14.765625 C 138.222656 14.765625 138.222656 14.765625 138.222656 14.875 C 138.222656 14.875 138.222656 14.875 138.332031 14.875 C 138.773438 15.644531 139.433594 16.195312 139.875 16.855469 C 140.316406 17.628906 140.644531 18.398438 140.976562 19.171875 C 140.976562 19.171875 141.085938 19.0625 141.085938 19.0625 C 141.746094 18.621094 142.078125 17.738281 142.078125 16.636719 C 141.746094 16.304688 141.746094 15.976562 141.527344 15.644531 C 141.195312 15.09375 140.535156 14.875 140.203125 14.542969 Z M 140.203125 14.542969 "/>
<path style=" stroke:none;fill-rule:nonzero;fill:rgb(89.019608%,55.294118%,10.196078%);fill-opacity:1;" d="M 87.664062 93.980469 L 106.167969 93.980469 C 108.371094 93.980469 110.355469 93.542969 112.117188 92.769531 C 114.871094 91.449219 116.191406 89.796875 116.191406 87.480469 L 116.191406 82.742188 C 116.191406 80.871094 114.648438 79.21875 111.675781 78.007812 C 110.132812 77.457031 108.152344 77.125 106.167969 77.125 L 98.457031 77.125 C 95.8125 77.125 94.601562 76.355469 94.273438 74.589844 C 94.273438 74.371094 94.273438 74.148438 94.273438 74.039062 L 94.273438 71.175781 C 94.273438 71.066406 94.273438 70.84375 94.273438 70.625 C 94.601562 69.300781 95.261719 68.972656 97.578125 68.75 C 97.796875 68.75 98.015625 68.75 98.128906 68.75 L 116.414062 68.75 L 116.414062 64.453125 L 98.457031 64.453125 C 95.8125 64.453125 94.492188 64.566406 93.28125 65.003906 C 89.535156 66.21875 87.773438 68.089844 87.773438 71.394531 L 87.773438 74.921875 C 87.773438 77.785156 90.96875 80.320312 96.476562 80.871094 C 97.027344 80.871094 97.6875 80.871094 98.347656 80.871094 L 104.957031 80.871094 C 105.175781 80.871094 105.398438 80.871094 105.617188 80.871094 C 107.601562 81.089844 108.480469 81.421875 109.140625 82.191406 C 109.582031 82.632812 109.582031 82.964844 109.582031 83.40625 L 109.582031 87.152344 C 109.582031 87.59375 109.253906 88.144531 108.703125 88.695312 C 108.152344 89.246094 107.160156 89.574219 105.949219 89.574219 C 105.726562 89.574219 105.507812 89.574219 105.289062 89.574219 L 87.664062 89.574219 Z M 87.664062 93.980469 "/>
<path style=" stroke:none;fill-rule:nonzero;fill:rgb(89.019608%,55.294118%,10.196078%);fill-opacity:1;" d="M 156.175781 86.488281 C 156.175781 90.898438 159.480469 93.320312 166.089844 93.761719 C 166.75 93.761719 167.300781 93.871094 167.960938 93.871094 L 184.703125 93.871094 L 184.703125 89.574219 L 167.851562 89.574219 C 164.105469 89.574219 162.675781 88.695312 162.675781 86.378906 L 162.675781 64.34375 L 156.285156 64.34375 Z M 156.175781 86.488281 "/>
<path style=" stroke:none;fill-rule:nonzero;fill:rgb(89.019608%,55.294118%,10.196078%);fill-opacity:1;" d="M 120.265625 86.710938 L 120.265625 71.503906 C 120.265625 67.648438 123.019531 65.226562 128.417969 64.566406 C 128.96875 64.566406 129.628906 64.453125 130.179688 64.453125 L 142.40625 64.453125 C 143.070312 64.453125 143.621094 64.453125 144.28125 64.566406 C 149.675781 65.335938 152.320312 67.648438 152.320312 71.503906 L 152.320312 86.710938 C 152.320312 89.90625 151.21875 91.558594 148.574219 92.660156 L 154.855469 98.390625 L 147.472656 98.390625 L 142.40625 93.761719 L 137.230469 94.09375 L 130.402344 94.09375 C 129.300781 94.09375 127.976562 93.980469 126.65625 93.652344 C 122.25 92.441406 120.265625 90.234375 120.265625 86.710938 Z M 127.207031 86.378906 C 127.207031 86.601562 127.316406 86.820312 127.316406 87.039062 C 127.648438 88.804688 129.300781 89.796875 131.832031 89.796875 L 137.671875 89.796875 L 132.382812 84.949219 L 139.765625 84.949219 L 144.390625 89.132812 C 145.269531 88.695312 145.820312 87.921875 146.042969 87.039062 C 146.042969 86.820312 146.042969 86.601562 146.042969 86.378906 L 146.042969 71.835938 C 146.042969 71.617188 146.042969 71.394531 146.042969 71.285156 C 145.710938 69.632812 144.058594 68.640625 141.527344 68.640625 L 131.832031 68.640625 C 128.96875 68.640625 127.097656 69.851562 127.097656 71.835938 Z M 127.207031 86.378906 "/>
<path style=" stroke:none;fill-rule:nonzero;fill:rgb(89.019608%,55.294118%,10.196078%);fill-opacity:1;" d="M 187.570312 93.980469 L 188.449219 93.980469 L 188.449219 90.347656 L 189.660156 90.347656 L 189.660156 89.574219 L 186.246094 89.574219 L 186.246094 90.347656 L 187.570312 90.347656 Z M 194.726562 93.980469 L 195.609375 93.980469 L 195.609375 89.683594 L 194.289062 89.683594 L 193.1875 92.660156 L 191.976562 89.683594 L 190.652344 89.683594 L 190.652344 93.980469 L 191.535156 93.980469 L 191.535156 90.675781 L 192.746094 93.980469 L 193.40625 93.980469 L 194.617188 90.675781 Z M 194.726562 93.980469 "/>
</g>
</svg>
