<?xml version="1.0" encoding="UTF-8"?>
<svg xmlns="http://www.w3.org/2000/svg" xmlns:xlink="http://www.w3.org/1999/xlink" width="200px" height="px" viewBox="0 0 200 200" version="1.1">
<g id="surface1">
<path style=" stroke:none;fill-rule:evenodd;fill:rgb(90.588235%,18.039216%,8.235294%);fill-opacity:1;" d="M 144.105469 88.550781 L 140.300781 88.550781 L 140.300781 111.84375 L 158.175781 111.84375 L 160.597656 108.039062 L 144.105469 108.039062 Z M 91.929688 89.703125 L 77.972656 111.84375 L 82.585938 111.84375 L 86.796875 105.15625 L 95.792969 105.15625 L 98.15625 101.351562 L 89.160156 101.351562 L 94.0625 93.679688 L 105.535156 111.84375 L 110.148438 111.84375 L 96.078125 89.644531 C 95.214844 88.203125 92.90625 88.203125 91.929688 89.703125 Z M 118.972656 92.347656 L 134.972656 92.347656 L 137.332031 88.546875 L 118.855469 88.554688 C 112.425781 88.554688 108.195312 93.769531 108.195312 100.195312 C 108.195312 106.625 112.425781 111.839844 118.855469 111.839844 L 134.484375 111.820312 L 136.933594 108.046875 L 118.972656 108.046875 C 114.636719 108.046875 112.101562 104.53125 112.101562 100.195312 C 112.101562 95.863281 114.636719 92.347656 118.972656 92.347656 Z M 37.3125 88.554688 L 20.820312 88.554688 C 14.390625 88.554688 10.160156 93.769531 10.160156 100.195312 C 10.160156 106.625 14.390625 111.839844 20.820312 111.839844 L 37.3125 111.839844 C 43.742188 111.839844 47.972656 106.625 47.972656 100.195312 C 47.972656 93.769531 43.742188 88.554688 37.3125 88.554688 Z M 37.3125 108.046875 L 20.820312 108.046875 C 16.488281 108.046875 13.953125 104.53125 13.953125 100.195312 C 13.953125 95.863281 16.488281 92.347656 20.820312 92.347656 L 37.3125 92.347656 C 41.648438 92.347656 44.183594 95.863281 44.183594 100.195312 C 44.183594 104.53125 41.648438 108.046875 37.3125 108.046875 Z M 164.789062 102.042969 L 184.9375 102.042969 L 187.363281 98.238281 L 164.789062 98.238281 C 165.445312 94.863281 167.828125 92.347656 171.476562 92.347656 L 187.476562 92.347656 L 189.839844 88.546875 L 171.359375 88.554688 C 164.929688 88.554688 160.703125 93.769531 160.703125 100.195312 C 160.703125 106.625 164.929688 111.839844 171.359375 111.839844 L 186.992188 111.820312 L 189.4375 108.046875 L 171.476562 108.046875 C 167.777344 108.046875 165.40625 105.488281 164.789062 102.042969 Z M 69.660156 102.378906 C 73.476562 102.378906 76.570312 99.285156 76.570312 95.46875 C 76.570312 91.652344 73.476562 88.558594 69.660156 88.558594 L 50.257812 88.550781 L 50.257812 111.84375 L 54.523438 111.84375 L 54.523438 92.351562 L 69.660156 92.351562 C 71.382812 92.351562 72.78125 93.746094 72.78125 95.46875 C 72.78125 97.191406 71.382812 98.589844 69.660156 98.589844 L 57.523438 98.589844 L 71.214844 111.820312 L 76.726562 111.820312 L 66.921875 102.386719 Z M 69.660156 102.378906 "/>
</g>
</svg>
