<?xml version="1.0" encoding="UTF-8"?>
<svg xmlns="http://www.w3.org/2000/svg" xmlns:xlink="http://www.w3.org/1999/xlink" width="200px" height="px" viewBox="0 0 199 107" version="1.1">
<defs>
<radialGradient id="radial0" gradientUnits="userSpaceOnUse" cx="147" cy="240" fx="147" fy="240" r="363.0565" gradientTransform="matrix(0.350352,0,0,-0.35082,9.291268,105.527575)">
<stop offset="0" style="stop-color:rgb(100%,100%,100%);stop-opacity:1;"/>
<stop offset="0.5" style="stop-color:rgb(29.803922%,41.960784%,59.215686%);stop-opacity:1;"/>
<stop offset="1" style="stop-color:rgb(0%,0%,0%);stop-opacity:1;"/>
</radialGradient>
</defs>
<g id="surface1">
<path style=" stroke:none;fill-rule:nonzero;fill:url(#radial0);" d="M 196.371094 54.414062 C 196.371094 26.242188 153 3.402344 99.5 3.402344 C 46 3.402344 2.628906 26.242188 2.628906 54.414062 C 2.628906 82.582031 46 105.421875 99.5 105.421875 C 153 105.421875 196.371094 82.582031 196.371094 54.414062 Z M 196.371094 54.414062 "/>
<path style=" stroke:none;fill-rule:nonzero;fill:rgb(38.039216%,50.588235%,71.372549%);fill-opacity:1;" d="M 192.589844 54.414062 C 192.589844 28.332031 150.910156 7.191406 99.5 7.191406 C 48.089844 7.191406 6.410156 28.332031 6.410156 54.414062 C 6.410156 80.492188 48.089844 101.632812 99.5 101.632812 C 150.910156 101.632812 192.589844 80.492188 192.589844 54.414062 Z M 192.589844 54.414062 "/>
<path style=" stroke:none;fill-rule:nonzero;fill:rgb(100%,100%,100%);fill-opacity:1;" d="M 118.347656 69.671875 L 122.972656 45.886719 C 124.023438 40.519531 123.148438 36.519531 120.382812 33.996094 C 117.71875 31.539062 113.199219 30.347656 106.542969 30.347656 L 98.554688 30.347656 L 100.832031 18.558594 C 100.902344 18.101562 100.796875 17.644531 100.515625 17.296875 C 100.234375 16.945312 99.816406 16.734375 99.359375 16.734375 L 88.324219 16.734375 C 87.589844 16.734375 86.992188 17.261719 86.851562 17.960938 L 81.949219 43.222656 C 81.492188 40.378906 80.40625 37.921875 78.652344 35.925781 C 75.429688 32.207031 70.28125 30.347656 63.449219 30.347656 L 42.042969 30.347656 C 41.304688 30.347656 40.710938 30.871094 40.570312 31.574219 L 30.621094 82.6875 C 30.550781 83.144531 30.65625 83.601562 30.9375 83.949219 C 31.214844 84.300781 31.636719 84.511719 32.09375 84.511719 L 43.234375 84.511719 C 43.96875 84.511719 44.566406 83.984375 44.703125 83.285156 L 47.121094 70.902344 L 55.390625 70.902344 C 59.734375 70.902344 63.378906 70.445312 66.25 69.496094 C 69.160156 68.550781 71.855469 66.9375 74.203125 64.726562 C 76.132812 62.972656 77.707031 61.007812 78.898438 58.867188 L 76.902344 69.078125 C 76.832031 69.53125 76.9375 69.988281 77.21875 70.339844 C 77.496094 70.691406 77.917969 70.902344 78.375 70.902344 L 89.410156 70.902344 C 90.144531 70.902344 90.742188 70.375 90.882812 69.671875 L 96.3125 41.605469 L 103.878906 41.605469 C 107.101562 41.605469 108.046875 42.238281 108.292969 42.519531 C 108.539062 42.765625 109.03125 43.675781 108.46875 46.449219 L 104.160156 69.113281 C 104.089844 69.566406 104.195312 70.023438 104.476562 70.375 C 104.753906 70.726562 105.175781 70.9375 105.632812 70.9375 L 116.84375 70.9375 C 117.578125 70.902344 118.207031 70.410156 118.347656 69.671875 Z M 67.199219 50.027344 C 66.496094 53.605469 65.199219 56.132812 63.308594 57.605469 C 61.382812 59.078125 58.332031 59.816406 54.199219 59.816406 L 49.257812 59.816406 L 52.832031 41.433594 L 59.210938 41.433594 C 63.902344 41.433594 65.796875 42.449219 66.53125 43.292969 C 67.582031 44.449219 67.828125 46.765625 67.199219 50.027344 Z M 67.199219 50.027344 "/>
<path style=" stroke:none;fill-rule:nonzero;fill:rgb(100%,100%,100%);fill-opacity:1;" d="M 165.542969 35.925781 C 162.316406 32.207031 157.167969 30.347656 150.335938 30.347656 L 128.929688 30.347656 C 128.195312 30.347656 127.597656 30.871094 127.457031 31.574219 L 117.542969 82.722656 C 117.472656 83.179688 117.578125 83.636719 117.859375 83.984375 C 118.140625 84.335938 118.558594 84.546875 119.015625 84.546875 L 130.15625 84.546875 C 130.890625 84.546875 131.488281 84.019531 131.628906 83.320312 L 134.042969 70.9375 L 142.3125 70.9375 C 146.65625 70.9375 150.300781 70.480469 153.175781 69.53125 C 156.082031 68.585938 158.78125 66.972656 161.125 64.761719 C 163.089844 62.9375 164.734375 60.902344 165.960938 58.691406 C 167.1875 56.480469 168.0625 54.027344 168.589844 51.394531 C 169.816406 44.871094 168.800781 39.675781 165.542969 35.925781 Z M 154.015625 50.027344 C 153.3125 53.605469 152.019531 56.132812 150.125 57.605469 C 148.199219 59.078125 145.152344 59.816406 141.015625 59.816406 L 136.078125 59.816406 L 139.648438 41.433594 L 146.027344 41.433594 C 150.722656 41.433594 152.613281 42.449219 153.347656 43.292969 C 154.433594 44.449219 154.644531 46.765625 154.015625 50.027344 Z M 154.015625 50.027344 "/>
<path style=" stroke:none;fill-rule:nonzero;fill:rgb(0%,0%,0%);fill-opacity:1;" d="M 59.210938 39.921875 C 63.449219 39.921875 66.25 40.695312 67.652344 42.273438 C 69.054688 43.851562 69.40625 46.519531 68.667969 50.308594 C 67.898438 54.273438 66.425781 57.078125 64.21875 58.796875 C 62.011719 60.480469 58.683594 61.324219 54.199219 61.324219 L 47.4375 61.324219 L 51.605469 39.921875 Z M 32.128906 83.003906 L 43.269531 83.003906 L 45.894531 69.390625 L 55.425781 69.390625 C 59.628906 69.390625 63.097656 68.9375 65.796875 68.058594 C 68.527344 67.183594 70.980469 65.707031 73.1875 63.605469 C 75.046875 61.882812 76.550781 59.988281 77.707031 57.921875 C 78.863281 55.851562 79.671875 53.570312 80.160156 51.078125 C 81.351562 45.011719 80.441406 40.308594 77.496094 36.90625 C 74.554688 33.539062 69.859375 31.820312 63.414062 31.820312 L 42.042969 31.820312 Z M 32.128906 83.003906 "/>
<path style=" stroke:none;fill-rule:nonzero;fill:rgb(0%,0%,0%);fill-opacity:1;" d="M 88.359375 18.277344 L 99.394531 18.277344 L 96.765625 31.890625 L 106.613281 31.890625 C 112.8125 31.890625 117.050781 32.976562 119.398438 35.117188 C 121.746094 37.292969 122.449219 40.765625 121.503906 45.605469 L 116.878906 69.390625 L 105.667969 69.390625 L 110.046875 46.765625 C 110.535156 44.203125 110.359375 42.449219 109.484375 41.503906 C 108.609375 40.554688 106.789062 40.097656 103.949219 40.097656 L 95.121094 40.097656 L 89.445312 69.390625 L 78.410156 69.390625 Z M 88.359375 18.277344 "/>
<path style=" stroke:none;fill-rule:nonzero;fill:rgb(0%,0%,0%);fill-opacity:1;" d="M 146.027344 39.921875 C 150.265625 39.921875 153.070312 40.695312 154.46875 42.273438 C 155.871094 43.851562 156.222656 46.519531 155.484375 50.308594 C 154.714844 54.273438 153.242188 57.078125 151.035156 58.796875 C 148.828125 60.480469 145.5 61.324219 141.015625 61.324219 L 134.253906 61.324219 L 138.425781 39.921875 Z M 118.945312 83.003906 L 130.085938 83.003906 L 132.714844 69.390625 L 142.242188 69.390625 C 146.445312 69.390625 149.914062 68.9375 152.613281 68.058594 C 155.347656 67.183594 157.796875 65.707031 160.003906 63.605469 C 161.863281 61.882812 163.371094 59.988281 164.523438 57.921875 C 165.679688 55.851562 166.488281 53.570312 166.976562 51.078125 C 168.167969 45.011719 167.257812 40.308594 164.316406 36.90625 C 161.371094 33.539062 156.675781 31.820312 150.230469 31.820312 L 128.824219 31.820312 Z M 118.945312 83.003906 "/>
</g>
</svg>
