<?xml version="1.0" encoding="UTF-8"?>
<svg xmlns="http://www.w3.org/2000/svg" xmlns:xlink="http://www.w3.org/1999/xlink" width="200px" height="px" viewBox="0 0 200 120" version="1.1">
<g id="surface1">
<path style=" stroke:none;fill-rule:nonzero;fill:rgb(60.784314%,36.078431%,56.078431%);fill-opacity:1;" d="M 18.5625 0 L 181.355469 0 C 191.660156 0 200 8.371094 200 18.714844 L 200 81.101562 C 200 91.445312 191.660156 99.816406 181.355469 99.816406 L 122.976562 99.816406 L 130.988281 119.519531 L 95.75 99.816406 L 18.644531 99.816406 C 8.339844 99.816406 0 91.445312 0 81.101562 L 0 18.714844 C -0.0820312 8.453125 8.257812 0 18.5625 0 Z M 18.5625 0 "/>
<path style=" stroke:none;fill-rule:nonzero;fill:rgb(100%,100%,100%);fill-opacity:1;" d="M 11.390625 17.058594 C 12.527344 15.507812 14.234375 14.691406 16.511719 14.527344 C 20.65625 14.203125 23.015625 16.160156 23.585938 20.40625 C 26.105469 37.464844 28.867188 51.910156 31.796875 63.746094 L 49.601562 29.710938 C 51.226562 26.609375 53.257812 24.976562 55.699219 24.8125 C 59.277344 24.566406 61.46875 26.851562 62.363281 31.667969 C 64.398438 42.523438 67 51.746094 70.089844 59.582031 C 72.203125 38.851562 75.78125 23.914062 80.820312 14.691406 C 82.039062 12.40625 83.828125 11.261719 86.1875 11.101562 C 88.054688 10.9375 89.761719 11.507812 91.308594 12.734375 C 92.851562 13.957031 93.664062 15.507812 93.828125 17.386719 C 93.910156 18.855469 93.664062 20.078125 93.015625 21.300781 C 89.84375 27.179688 87.242188 37.054688 85.128906 50.765625 C 83.097656 64.070312 82.363281 74.4375 82.851562 81.863281 C 83.015625 83.90625 82.691406 85.699219 81.878906 87.25 C 80.902344 89.046875 79.4375 90.027344 77.566406 90.191406 C 75.453125 90.351562 73.257812 89.375 71.144531 87.167969 C 63.585938 79.414062 57.566406 67.824219 53.179688 52.398438 C 47.894531 62.847656 43.992188 70.683594 41.46875 75.90625 C 36.671875 85.128906 32.609375 89.863281 29.195312 90.109375 C 27 90.269531 25.128906 88.394531 23.503906 84.476562 C 19.355469 73.785156 14.886719 53.132812 10.089844 22.527344 C 9.761719 20.40625 10.25 18.527344 11.390625 17.058594 Z M 186.105469 29.871094 C 183.179688 24.730469 178.867188 21.628906 173.097656 20.40625 C 171.550781 20.078125 170.089844 19.914062 168.707031 19.914062 C 160.902344 19.914062 154.558594 23.996094 149.601562 32.15625 C 145.371094 39.097656 143.257812 46.769531 143.257812 55.175781 C 143.257812 61.460938 144.558594 66.847656 147.160156 71.335938 C 150.089844 76.476562 154.398438 79.578125 160.167969 80.804688 C 161.714844 81.128906 163.179688 81.292969 164.558594 81.292969 C 172.445312 81.292969 178.789062 77.210938 183.664062 69.050781 C 187.894531 62.03125 190.007812 54.359375 190.007812 45.953125 C 190.089844 39.585938 188.707031 34.28125 186.105469 29.871094 Z M 175.859375 52.480469 C 174.722656 57.867188 172.691406 61.867188 169.683594 64.5625 C 167.324219 66.683594 165.128906 67.582031 163.097656 67.171875 C 161.144531 66.765625 159.519531 65.050781 158.300781 61.867188 C 157.324219 59.335938 156.835938 56.808594 156.835938 54.441406 C 156.835938 52.398438 157 50.359375 157.40625 48.480469 C 158.136719 45.136719 159.519531 41.871094 161.714844 38.769531 C 164.398438 34.769531 167.242188 33.136719 170.167969 33.707031 C 172.121094 34.117188 173.746094 35.832031 174.964844 39.015625 C 175.941406 41.542969 176.429688 44.074219 176.429688 46.441406 C 176.429688 48.5625 176.265625 50.605469 175.859375 52.480469 Z M 135.210938 29.871094 C 132.285156 24.730469 127.894531 21.628906 122.203125 20.40625 C 120.65625 20.078125 119.195312 19.914062 117.8125 19.914062 C 110.007812 19.914062 103.664062 23.996094 98.707031 32.15625 C 94.480469 39.097656 92.363281 46.769531 92.363281 55.175781 C 92.363281 61.460938 93.664062 66.847656 96.265625 71.335938 C 99.195312 76.476562 103.503906 79.578125 109.277344 80.804688 C 110.820312 81.128906 112.285156 81.292969 113.664062 81.292969 C 121.550781 81.292969 127.894531 77.210938 132.769531 69.050781 C 137 62.03125 139.113281 54.359375 139.113281 45.953125 C 139.113281 39.585938 137.8125 34.28125 135.210938 29.871094 Z M 124.886719 52.480469 C 123.746094 57.867188 121.714844 61.867188 118.707031 64.5625 C 116.347656 66.683594 114.152344 67.582031 112.121094 67.171875 C 110.167969 66.765625 108.542969 65.050781 107.324219 61.867188 C 106.347656 59.335938 105.859375 56.808594 105.859375 54.441406 C 105.859375 52.398438 106.023438 50.359375 106.429688 48.480469 C 107.160156 45.136719 108.542969 41.871094 110.738281 38.769531 C 113.421875 34.769531 116.265625 33.136719 119.195312 33.707031 C 121.144531 34.117188 122.769531 35.832031 123.992188 39.015625 C 124.964844 41.542969 125.453125 44.074219 125.453125 46.441406 C 125.535156 48.5625 125.292969 50.605469 124.886719 52.480469 Z M 124.886719 52.480469 "/>
</g>
</svg>
