<?xml version="1.0" encoding="UTF-8"?>
<svg xmlns="http://www.w3.org/2000/svg" xmlns:xlink="http://www.w3.org/1999/xlink" width="200px" height="px" viewBox="0 0 200 200" version="1.1">
<defs>
<linearGradient id="linear0" gradientUnits="userSpaceOnUse" x1="1.124918" y1="6.928866" x2="22.875082" y2="17.071135" gradientTransform="matrix(8.333333,0,0,8.333333,0,0)">
<stop offset="0" style="stop-color:rgb(100%,100%,100%);stop-opacity:0.2;"/>
<stop offset="1" style="stop-color:rgb(100%,100%,100%);stop-opacity:0;"/>
</linearGradient>
</defs>
<g id="surface1">
<path style=" stroke:none;fill-rule:nonzero;fill:rgb(40.392157%,40.392157%,40.392157%);fill-opacity:1;" d="M 100 0 C 44.859375 0 0 44.859375 0 100 C 0 155.140625 44.859375 200 100 200 C 155.140625 200 200 155.140625 200 100 C 200 44.859375 155.140625 0 100 0 Z M 100 191.667969 C 49.453125 191.667969 8.332031 150.546875 8.332031 100 C 8.332031 49.453125 49.453125 8.332031 100 8.332031 C 150.546875 8.332031 191.667969 49.453125 191.667969 100 C 191.667969 150.546875 150.546875 191.667969 100 191.667969 Z M 100 191.667969 "/>
<path style=" stroke:none;fill-rule:nonzero;fill:rgb(40.392157%,40.392157%,40.392157%);fill-opacity:1;" d="M 23.671875 66.667969 C 19.191406 76.886719 16.667969 88.148438 16.667969 100 C 16.667969 133.742188 36.859375 162.800781 65.765625 175.890625 L 27.304688 66.667969 Z M 23.671875 66.667969 "/>
<path style=" stroke:none;fill-rule:nonzero;fill:rgb(40.392157%,40.392157%,40.392157%);fill-opacity:1;" d="M 66.667969 62.5 C 66.667969 64.804688 64.804688 66.667969 62.5 66.667969 L 60.097656 66.667969 L 83.460938 139.144531 C 87.71875 127 92.097656 114.382812 95.5 104.304688 L 82.246094 66.667969 L 79.167969 66.667969 C 76.863281 66.667969 75 64.804688 75 62.5 C 75 60.195312 76.863281 58.332031 79.167969 58.332031 L 116.667969 58.332031 C 118.96875 58.332031 120.832031 60.195312 120.832031 62.5 C 120.832031 64.804688 118.96875 66.667969 116.667969 66.667969 L 115.035156 66.667969 L 138.398438 139.144531 C 143.242188 125.339844 148.273438 110.835938 151.796875 100.257812 C 153.398438 92.261719 147.191406 82.214844 141.683594 73.300781 C 137.398438 66.363281 133.695312 60.367188 133.695312 55.253906 C 133.695312 39.648438 142.777344 37.316406 148.1875 37.316406 C 151.453125 37.316406 154.433594 38.191406 157.175781 39.535156 C 142.238281 25.402344 122.140625 16.667969 100 16.667969 C 69.234375 16.667969 42.375 33.46875 27.941406 58.332031 L 62.5 58.332031 C 64.804688 58.332031 66.667969 60.195312 66.667969 62.5 Z M 66.667969 62.5 "/>
<path style=" stroke:none;fill-rule:nonzero;fill:rgb(40.392157%,40.392157%,40.392157%);fill-opacity:1;" d="M 77.761719 180.230469 C 84.855469 182.199219 92.289062 183.332031 100 183.332031 C 107.707031 183.332031 115.140625 182.199219 122.230469 180.230469 L 99.972656 117.015625 C 92.011719 140.1875 81.425781 169.957031 77.761719 180.230469 Z M 77.761719 180.230469 "/>
<path style=" stroke:none;fill-rule:nonzero;fill:rgb(40.392157%,40.392157%,40.392157%);fill-opacity:1;" d="M 167.691406 51.578125 C 171.097656 62.238281 166.917969 80.378906 162.488281 94.371094 C 161.765625 96.65625 160.871094 99.390625 159.851562 102.460938 C 159.753906 102.878906 159.644531 103.300781 159.515625 103.71875 C 159.421875 104.039062 159.289062 104.34375 159.125 104.625 C 152.03125 125.789062 139.78125 160.347656 134.25 175.886719 C 163.148438 162.789062 183.332031 133.734375 183.332031 100 C 183.332031 81.9375 177.492188 65.242188 167.691406 51.578125 Z M 167.691406 51.578125 "/>
<path style=" stroke:none;fill-rule:nonzero;fill:url(#linear0);" d="M 100 0 C 44.859375 0 0 44.859375 0 100 C 0 155.140625 44.859375 200 100 200 C 155.140625 200 200 155.140625 200 100 C 200 44.859375 155.140625 0 100 0 Z M 100 0 "/>
</g>
</svg>
